HIERARCHY
ROOT Hips
{
	OFFSET 0.000000 0.000000 0.000000
	CHANNELS 6 Xposition Yposition Zposition Xrotation Yrotation Zrotation
	JOINT LeftUpLeg_virtual
	{
		OFFSET 0.000000 0.000000 0.000000
		CHANNELS 3 Xrotation Yrotation Zrotation
		JOINT LeftUpLeg
		{
			OFFSET 15.427100 -6.655098 0.678600
			CHANNELS 3 Xrotation Yrotation Zrotation
			JOINT LeftLeg
			{
				OFFSET 4.081073 -39.591068 13.024000
				CHANNELS 3 Xrotation Yrotation Zrotation
				JOINT LeftFoot
				{
					OFFSET -4.081074 -37.707932 -15.979700
					CHANNELS 3 Xrotation Yrotation Zrotation
					JOINT LeftToeBase
					{
						OFFSET 5.346399 -15.068900 20.645000
						CHANNELS 3 Xrotation Yrotation Zrotation
						JOINT LeftToe_End
						{
							OFFSET 2.754700 0.931300 11.300900
							CHANNELS 3 Xrotation Yrotation Zrotation
							End Site
							{
								OFFSET 0 0 0
							}
						}
					}
				}
			}
		}
	}
	JOINT RightUpLeg_virtual
	{
		OFFSET 0.000000 0.000000 0.000000
		CHANNELS 3 Xrotation Yrotation Zrotation
		JOINT RightUpLeg
		{
			OFFSET -15.569500 -6.655098 0.678600
			CHANNELS 3 Xrotation Yrotation Zrotation
			JOINT RightLeg
			{
				OFFSET -4.081825 -39.591045 13.023800
				CHANNELS 3 Xrotation Yrotation Zrotation
				JOINT RightFoot
				{
					OFFSET 4.081824 -37.707954 -15.979600
					CHANNELS 3 Xrotation Yrotation Zrotation
					JOINT RightToeBase
					{
						OFFSET -5.346400 -15.068900 20.645000
						CHANNELS 3 Xrotation Yrotation Zrotation
						JOINT RightToe_End
						{
							OFFSET -2.754700 0.931300 11.300900
							CHANNELS 3 Xrotation Yrotation Zrotation
							End Site
							{
								OFFSET 0 0 0
							}
						}
					}
				}
			}
		}
	}
	JOINT Spine_virtual
	{
		OFFSET 0.000000 0.000000 0.000000
		CHANNELS 3 Xrotation Yrotation Zrotation
		JOINT Spine
		{
			OFFSET -0.279200 12.230698 -2.892100
			CHANNELS 3 Xrotation Yrotation Zrotation
			JOINT Spine1
			{
				OFFSET -0.232667 10.192268 -1.242267
				CHANNELS 3 Xrotation Yrotation Zrotation
				JOINT Spine1_split
				{
					OFFSET -0.232667 10.192268 -1.242267
					CHANNELS 3 Xrotation Yrotation Zrotation
					JOINT Spine2
					{
						OFFSET -0.232667 10.192268 -1.242267
						CHANNELS 3 Xrotation Yrotation Zrotation
						JOINT Neck_virtual
						{
							OFFSET 0.000000 0.000000 0.000000
							CHANNELS 3 Xrotation Yrotation Zrotation
							JOINT Neck
							{
								OFFSET -0.418800 17.814194 8.416900
								CHANNELS 3 Xrotation Yrotation Zrotation
								JOINT Head
								{
									OFFSET 0.000000 7.031097 3.806800
									CHANNELS 3 Xrotation Yrotation Zrotation
									JOINT HeadTop_End
									{
										OFFSET 0.000000 24.646606 12.978600
										CHANNELS 3 Xrotation Yrotation Zrotation
										End Site
										{
											OFFSET 0 0 0
										}
									}
								}
							}
						}
						JOINT LeftShoulder_virtual
						{
							OFFSET 0.000000 0.000000 0.000000
							CHANNELS 3 Xrotation Yrotation Zrotation
							JOINT LeftShoulder
							{
								OFFSET 8.476499 7.247704 -3.868750
								CHANNELS 3 Xrotation Yrotation Zrotation
								JOINT LeftShoulder_split
								{
									OFFSET 8.476499 7.247704 -3.868750
									CHANNELS 3 Xrotation Yrotation Zrotation
									JOINT LeftArm
									{
										OFFSET 9.308998 -2.777710 0.208600
										CHANNELS 3 Xrotation Yrotation Zrotation
										JOINT LeftForeArm
										{
											OFFSET 29.972298 0.000000 0.000000
											CHANNELS 3 Xrotation Yrotation Zrotation
											JOINT LeftHand
											{
												OFFSET 26.026505 0.000000 0.000000
												CHANNELS 3 Xrotation Yrotation Zrotation
												End Site
												{
													OFFSET 0 0 0
												}
											}
										}
									}
								}
							}
						}
						JOINT RightShoulder_virtual
						{
							OFFSET 0.000000 0.000000 0.000000
							CHANNELS 3 Xrotation Yrotation Zrotation
							JOINT RightShoulder
							{
								OFFSET -7.570500 7.247704 -3.868750
								CHANNELS 3 Xrotation Yrotation Zrotation
								JOINT RightShoulder_split
								{
									OFFSET -7.570500 7.247704 -3.868750
									CHANNELS 3 Xrotation Yrotation Zrotation
									JOINT RightArm
									{
										OFFSET -9.308998 -2.777710 0.208500
										CHANNELS 3 Xrotation Yrotation Zrotation
										JOINT RightForeArm
										{
											OFFSET -29.972300 0.000000 0.000000
											CHANNELS 3 Xrotation Yrotation Zrotation
											JOINT RightHand
											{
												OFFSET -26.026505 0.000000 0.000000
												CHANNELS 3 Xrotation Yrotation Zrotation
												End Site
												{
													OFFSET 0 0 0
												}
											}
										}
									}
								}
							}
						}
					}
				}
			}
		}
	}
}
MOTION
Frames: 4
Frame Time: 0.03333333
0.289060 78.876129 -0.157291 0.000000 0.000000 0.000000 3.037468 -58.355080 6.232994 -34.681938 8.729464 27.684334 40.318446 -8.743232 -10.519839 -7.477915 -1.697366 -10.847163 -0.353119 1.238182 0.776626 0.000000 0.000000 0.000000 3.037468 -58.355080 6.232994 -31.023751 -7.189294 -29.208447 46.890649 5.288365 -6.185761 -19.301896 0.930648 23.072485 -0.348079 -0.997527 -0.768819 0.000000 0.000000 0.000000 3.037468 -58.355080 6.232994 11.190424 0.276955 -2.458541 8.434587 0.027708 -5.592321 0.000000 0.000000 0.000000 0.000000 0.000000 0.000000 8.457051 0.027846 -5.591861 -21.555708 25.063301 12.062586 -0.293968 25.465865 -3.208983 0.000000 0.000000 0.000000 8.457051 0.027846 -5.591861 -6.221660 -11.503837 -4.023810 0.000000 0.000000 0.000000 -23.062117 9.568713 -36.639638 0.046168 -43.169456 -0.011161 0.000000 0.000000 0.000000 8.457051 0.027846 -5.591861 -5.488247 10.658292 2.466532 0.000000 0.000000 0.000000 -41.473790 -26.755642 30.079071 -155.044666 68.136902 156.691670 0.000000 0.000000 0.000000 
0.311832 78.831779 -0.192719 0.000000 0.000000 0.000000 3.099525 -58.314748 6.219286 -34.869543 8.691838 27.766331 40.405804 -8.828945 -10.491406 -7.446790 -1.695201 -10.842510 -0.350845 1.211048 0.780817 0.000000 0.000000 0.000000 3.099525 -58.314748 6.219286 -31.071439 -7.134547 -29.143669 46.979025 5.249659 -6.165184 -19.330077 0.894574 23.189199 -0.317940 -0.997901 -0.837112 0.000000 0.000000 0.000000 3.099525 -58.314748 6.219286 11.181198 0.308379 -2.385723 8.418549 0.098053 -5.435012 0.000000 0.000000 0.000000 0.000000 0.000000 0.000000 8.441000 0.098156 -5.434537 -20.687893 25.289872 11.929347 -0.113994 25.894260 -3.222222 0.000000 0.000000 0.000000 8.441000 0.098156 -5.434537 -5.908041 -11.406745 -4.124972 0.000000 0.000000 0.000000 -23.202743 9.567581 -36.508372 -0.784469 -43.550075 0.142518 0.000000 0.000000 0.000000 8.441000 0.098156 -5.434537 -4.944354 10.745125 2.290183 0.000000 0.000000 0.000000 -41.728136 -26.359944 29.303718 -148.759826 67.825343 150.764309 0.000000 0.000000 0.000000 
0.353748 78.769920 -0.219509 0.000000 0.000000 0.000000 3.263025 -58.354158 6.334145 -35.050072 8.634913 27.815754 40.533802 -8.830993 -10.463636 -7.468067 -1.670032 -10.879425 -0.348333 1.211521 0.786542 0.000000 0.000000 0.000000 3.263025 -58.354158 6.334145 -31.257661 -6.983585 -29.104382 47.120799 5.270387 -6.165670 -19.320163 0.842572 23.361289 -0.318034 -0.997889 -0.837096 0.000000 0.000000 0.000000 3.263025 -58.354158 6.334145 11.226246 0.348701 -2.313670 8.510473 0.182098 -5.283890 0.000000 0.000000 0.000000 0.000000 0.000000 0.000000 8.532953 0.182197 -5.283413 -20.123276 25.465836 11.827796 0.030781 26.349792 -3.310555 0.000000 0.000000 0.000000 8.532953 0.182197 -5.283413 -5.926047 -11.422276 -4.222788 0.000000 0.000000 0.000000 -23.520453 9.796241 -36.349352 -1.367462 -44.014313 -0.092805 0.000000 0.000000 0.000000 8.532953 0.182197 -5.283413 -4.380912 10.817094 1.921909 0.000000 0.000000 0.000000 -41.834997 -25.699715 27.556369 -146.867714 68.921533 148.959937 0.000000 0.000000 0.000000 
0.473703 78.620392 -0.203365 0.000000 0.000000 0.000000 4.149515 -58.947306 7.426949 -35.086313 8.506571 27.620904 40.821677 -8.224209 -10.469597 -7.801458 -1.485722 -11.237545 -0.344127 1.212885 0.796147 0.000000 0.000000 0.000000 4.149515 -58.947306 7.426949 -32.431319 -6.307433 -29.327917 47.592328 5.824635 -6.213902 -19.099116 0.791441 23.617290 -0.317983 -0.997813 -0.837079 0.000000 0.000000 0.000000 4.149515 -58.947306 7.426949 11.225757 0.482136 -2.168842 8.517014 0.461073 -5.018306 0.000000 0.000000 0.000000 0.000000 0.000000 0.000000 8.539494 0.461210 -5.017854 -19.758977 25.725143 11.508527 -0.027825 26.816912 -3.560205 0.000000 0.000000 0.000000 8.539494 0.461210 -5.017854 -6.010993 -11.689443 -4.943660 0.000000 0.000000 0.000000 -23.867013 10.489729 -35.847281 -1.358964 -44.669038 -0.392091 0.000000 0.000000 0.000000 8.539494 0.461210 -5.017854 -3.469766 11.203873 1.344720 0.000000 0.000000 0.000000 -41.943177 -23.995583 23.804522 -135.738467 68.849256 138.137489 0.000000 0.000000 0.000000 
